<svg t="1516870288470" class="icon" viewBox="0 0 1024 1024" version="1.1" xmlns="http://www.w3.org/2000/svg" p-id="6903" height="200" width="200"><path d="M204.8 358.4h102.4l89.6 122.88 33.28-40.96S340.48 317.44 332.8 307.2H204.8c-15.36 0-25.6 12.8-25.6 28.16 0 12.8 10.24 23.04 25.6 23.04z m512 0v69.12c7.68 7.68 30.72 10.24 38.4 2.56l107.52-81.92c7.68-7.68 7.68-20.48 0-28.16l-107.52-81.92c-7.68-7.68-30.72-10.24-38.4-2.56V307.2h-128L307.2 691.2H204.8c-15.36 0-25.6 10.24-25.6 23.04 0 15.36 10.24 28.16 25.6 28.16h128l281.6-384h102.4z m38.4 261.12c-7.68-7.68-30.72-5.12-38.4 2.56V691.2h-102.4l-89.6-122.88-33.28 40.96 97.28 130.56h128v74.24c7.68 7.68 30.72 5.12 38.4-2.56l107.52-81.92c7.68-7.68 7.68-20.48 0-28.16l-107.52-81.92z" p-id="6904" fill="#515151"></path></svg>