<svg t="1516850353943" class="icon" viewBox="0 0 1025 1024" version="1.1" xmlns="http://www.w3.org/2000/svg" p-id="16226" height="200" width="200"><path d="M695.402004 588.550273l-272.676711 0c-5.900235 0-10.683718 4.783483-10.683718 10.687356l0 8.319259c0 5.896598 4.779845 10.683718 10.683718 10.683718l272.676711 0c5.900235 0 10.687356-4.783483 10.687356-10.683718l0-8.319259C706.089359 593.337394 701.302239 588.550273 695.402004 588.550273z" p-id="16227" fill="#e6e6e6"></path><path d="M422.572512 544.02205l272.673073 0c5.900235 0 10.687356-4.783483 10.687356-10.683718l0-8.319259c0-5.896598-4.783483-10.687356-10.687356-10.687356l-272.673073 0c-5.903873 0-10.687356 4.78712-10.687356 10.687356l0 8.319259C411.885156 539.238567 416.668639 544.02205 422.572512 544.02205z" p-id="16228" fill="#e6e6e6"></path><path d="M695.402004 440.356883l-272.676711 0c-5.900235 0-10.683718 4.783483-10.683718 10.687356l0 8.315621c0 5.903873 4.779845 10.683718 10.683718 10.683718l272.676711 0c5.900235 0 10.687356-4.779845 10.687356-10.683718l0-8.315621C706.089359 445.140366 701.302239 440.356883 695.402004 440.356883z" p-id="16229" fill="#e6e6e6"></path><path d="M511.999997 0C229.232501 0 0 229.232501 0 511.999997c0 282.771133 229.232501 511.999997 511.999997 511.999997 282.771133 0 512.003635-229.228864 512.003635-511.999997C1024.003631 229.232501 794.77113 0 511.999997 0zM345.483867 727.707792l-46.925421 0c-5.6165 0-10.167175-4.550675-10.167175-10.159899L288.391271 269.533799c0-5.609225 4.550675-10.159899 10.167175-10.159899l352.271683 0c5.612862 0 10.163537 4.550675 10.163537 10.159899l0 48.274982L345.483867 317.808781 345.483867 727.707792zM735.612361 655.49357c0 2.197128-2.062536 6.38404-6.18397 12.560735s-9.308694 13.317362-15.547229 21.414725c-6.24581 8.101001-13.19732 16.609417-20.847255 25.539797-7.660848 8.919468-14.965208 17.020469-21.91308 24.295728-6.95151 7.278897-13.077278 13.317362-18.377304 18.119033-5.300026 4.808946-8.890367 7.206144-10.778296 7.206144l-238.904958 0c-5.656514 0-10.54185-2.400836-14.666922-7.206144-4.121434-4.801671-6.18397-10.498199-6.18397-17.085946l0-363.246412c0-6.864207 2.062536-12.626212 6.18397-17.296929 4.125072-4.667079 9.014046-7.002437 14.666922-7.002437l311.704839 0c5.652876 0 10.538213 2.335358 14.663285 7.002437 4.125072 4.670716 6.18397 10.432722 6.18397 17.296929L735.612361 655.49357z" p-id="16230" fill="#e6e6e6"></path></svg>