<svg t="1516868832700" class="icon" viewBox="0 0 1024 1024" version="1.1" xmlns="http://www.w3.org/2000/svg" p-id="3696" height="200" width="200"><path d="M716.8 153.6c-25.6 0-25.6 25.6-25.6 25.6v419.84c-56.32-40.96-151.04-43.52-235.52 5.12-104.96 58.88-148.48 171.52-107.52 248.32 43.52 79.36 166.4 92.16 268.8 33.28 81.92-46.08 122.88-122.88 122.88-194.56V179.2c2.56-12.8-10.24-25.6-23.04-25.6z m-115.2 688.64c-76.8 46.08-168.96 46.08-207.36-10.24-35.84-53.76-2.56-140.8 71.68-186.88 76.8-46.08 171.52-43.52 209.92 12.8 38.4 58.88-5.12 143.36-74.24 184.32z" p-id="3697" fill="#5fbb7f"></path></svg>